# File created by Blade
# Date/Time:  Mon Sep 29 17:58:21 2014
# Frame Rate: 120.000 fps
#------------------------------------------------------
:FULLY-SPECIFIED
:DEGREES
1905
root -2.034586 3.708323 -8.021121 -23.723055 8.362257 5.504655
Spine 48.475201 58.560435 25.006214
Head -95.879562 67.727028 -76.831986
LeftShoulder -8.685530 11.064281 17.266990
LeftArm 27.966033 34.690988 -75.551085
LeftForeArm -28.648638 0.000000 7.598107
LeftHand -53.800266 -0.000000 80.661178
LeftHandThumb1 -26.253704 0.000000 33.147579
RightShoulder 7.331625 30.833402 -19.082244
RightArm -1.242789 -50.131705 62.596878
RightForeArm -29.318447 -0.000000 13.452468
RightHand -4.704654 -0.000000 32.795618
RightHandThumb1 -24.326973 -0.000000 -32.862282
LeftUpLeg -107.011512 -29.528933 -18.253686
LeftLeg 115.588683 -0.000000 -0.000000
LeftFoot 10.945613 9.714717 -16.224354
LeftToeBase 5.867736 -0.000000 -0.000000
RightUpLeg -63.663386 -4.783921 16.454304
RightLeg 6.329211 -0.000000 -0.000000
RightFoot 38.870387 -1.844775 8.488594
RightToeBase 6.750770 -0.000000 -0.000000
1906
root -2.036343 3.707640 -8.020390 -23.733300 8.356113 5.506147
Spine 48.459405 58.544814 25.002130
Head -95.804884 67.740377 -76.779270
LeftShoulder -8.666302 11.053849 17.283448
LeftArm 27.948026 34.714594 -75.563228
LeftForeArm -28.680950 -0.000000 7.571915
LeftHand -53.807046 -0.000000 80.662747
LeftHandThumb1 -26.253704 0.000000 33.147579
RightShoulder 7.337081 30.849934 -19.081107
RightArm -1.167589 -49.995806 62.556739
RightForeArm -29.374457 -0.000000 13.424382
RightHand -4.751427 -0.000000 32.790089
RightHandThumb1 -24.326973 -0.000000 -32.862282
LeftUpLeg -107.000280 -29.519213 -18.269596
LeftLeg 115.588946 -0.000000 -0.000000
LeftFoot 11.006198 9.736513 -16.106165
LeftToeBase 5.641160 -0.000000 -0.000000
RightUpLeg -63.648201 -4.777769 16.454535
RightLeg 6.321071 -0.000000 -0.000000
RightFoot 38.888347 -1.800749 8.462431
RightToeBase 6.725301 -0.000000 -0.000000
1907
root -2.036241 3.706632 -8.019789 -23.740931 8.352672 5.512459
Spine 48.442809 58.530870 24.992971
Head -95.724725 67.741024 -76.707480
LeftShoulder -8.669297 11.030532 17.292774
LeftArm 27.923541 34.739618 -75.581191
LeftForeArm -28.719952 -0.000000 7.540925
LeftHand -53.819544 -0.000000 80.647036
LeftHandThumb1 -26.253704 0.000000 33.147579
RightShoulder 7.339037 30.856011 -19.097695
RightArm -1.091365 -49.866453 62.531620
RightForeArm -29.434037 -0.000000 13.390926
RightHand -4.774273 -0.000000 32.726397
RightHandThumb1 -24.326973 -0.000000 -32.862282
LeftUpLeg -106.995683 -29.512038 -18.278196
LeftLeg 115.589468 -0.000000 -0.000000
LeftFoot 11.021356 9.736861 -16.088889
LeftToeBase 5.602703 -0.000000 -0.000000
RightUpLeg -63.641932 -4.761835 16.437622
RightLeg 6.323488 -0.000000 -0.000000
RightFoot 38.896863 -1.847623 8.493169
RightToeBase 6.711326 -0.000000 -0.000000
1908
root -2.035770 3.705853 -8.018685 -23.753971 8.360153 5.520834
Spine 48.425164 58.512395 24.975155
Head -95.669509 67.736341 -76.646078
LeftShoulder -8.661678 11.035649 17.308063
LeftArm 27.922313 34.738912 -75.598785
LeftForeArm -28.746159 0.000000 7.510211
LeftHand -53.796924 -0.000000 80.655155
LeftHandThumb1 -26.253704 0.000000 33.147579
RightShoulder 7.346925 30.841333 -19.090040
RightArm -1.009898 -49.828963 62.457624
RightForeArm -29.472154 0.000000 13.415505
RightHand -4.816606 -0.000000 32.654248
RightHandThumb1 -24.326973 -0.000000 -32.862282
LeftUpLeg -106.981200 -29.510074 -18.296177
LeftLeg 115.591429 -0.000000 -0.000000
LeftFoot 11.024676 9.725837 -16.096358
LeftToeBase 5.634761 -0.000000 -0.000000
RightUpLeg -63.631349 -4.748508 16.400364
RightLeg 6.333265 -0.000000 -0.000000
RightFoot 38.875814 -1.867090 8.472748
RightToeBase 6.732006 -0.000000 -0.000000
1909
root -2.036553 3.705220 -8.019219 -23.752470 8.359854 5.524658
Spine 48.409233 58.508693 24.968473
Head -95.605559 67.717361 -76.609552
LeftShoulder -8.656391 11.024397 17.311650
LeftArm 27.913255 34.758150 -75.598518
LeftForeArm -28.747361 -0.000000 7.498883
LeftHand -53.848840 -0.000000 80.635291
LeftHandThumb1 -26.253704 0.000000 33.147579
RightShoulder 7.353514 30.855689 -19.097820
RightArm -0.987641 -49.823309 62.445399
RightForeArm -29.497481 -0.000000 13.431819
RightHand -4.844106 -0.000000 32.566593
RightHandThumb1 -24.326973 -0.000000 -32.862282
LeftUpLeg -106.979367 -29.502766 -18.302613
LeftLeg 115.593640 -0.000000 -0.000000
LeftFoot 11.008595 9.717166 -16.095932
LeftToeBase 5.637922 -0.000000 -0.000000
RightUpLeg -63.639516 -4.758647 16.419410
RightLeg 6.339436 -0.000000 -0.000000
RightFoot 38.908484 -1.751417 8.394720
RightToeBase 6.780207 -0.000000 -0.000000
1910
root -2.035313 3.704392 -8.018901 -23.750784 8.357630 5.525606
Spine 48.388885 58.507961 24.961385
Head -95.607283 67.671727 -76.623984
LeftShoulder -8.678227 11.033460 17.303026
LeftArm 27.918252 34.759041 -75.596315
LeftForeArm -28.731290 -0.000000 7.495941
LeftHand -53.818470 -0.000000 80.659447
LeftHandThumb1 -26.253704 0.000000 33.147579
RightShoulder 7.435336 30.875825 -19.099218
RightArm -1.123490 -49.736980 62.540002
RightForeArm -29.630612 -0.000000 13.499518
RightHand -4.837703 0.000000 32.466490
RightHandThumb1 -24.326973 -0.000000 -32.862282
LeftUpLeg -106.985426 -29.505603 -18.298628
LeftLeg 115.593359 -0.000000 -0.000000
LeftFoot 11.024470 9.705299 -16.122082
LeftToeBase 5.523054 -0.000000 -0.000000
RightUpLeg -63.655007 -4.761977 16.430766
RightLeg 6.357631 -0.000000 -0.000000
RightFoot 38.962728 -1.767922 8.449603
RightToeBase 6.613251 -0.000000 -0.000000
1911
root -2.034823 3.704123 -8.018817 -23.750418 8.361134 5.529699
Spine 48.390397 58.514148 24.972630
Head -95.608126 67.636931 -76.650747
LeftShoulder -8.682645 11.053643 17.292620
LeftArm 27.927875 34.722390 -75.600825
LeftForeArm -28.672246 -0.000000 7.506490
LeftHand -53.779963 -0.000000 80.732678
LeftHandThumb1 -26.253704 0.000000 33.147579
RightShoulder 7.448180 30.888885 -19.103145
RightArm -1.164239 -49.791711 62.566568
RightForeArm -29.658852 0.000000 13.528702
RightHand -4.828666 -0.000000 32.377018
RightHandThumb1 -24.326973 -0.000000 -32.862282
LeftUpLeg -106.983261 -29.505653 -18.309673
LeftLeg 115.594270 -0.000000 -0.000000
LeftFoot 11.010092 9.700286 -16.073553
LeftToeBase 5.617755 -0.000000 -0.000000
RightUpLeg -63.657317 -4.767254 16.438864
RightLeg 6.355418 -0.000000 -0.000000
RightFoot 38.980099 -1.748518 8.413220
RightToeBase 6.621536 -0.000000 -0.000000
1912
root -2.034140 3.703940 -8.018694 -23.753538 8.365182 5.538335
Spine 48.393652 58.518765 24.984546
Head -95.626259 67.617770 -76.693508
LeftShoulder -8.682850 11.054788 17.278625
LeftArm 27.911620 34.643648 -75.630078
LeftForeArm -28.572248 0.000000 7.504774
LeftHand -53.915533 -0.000000 80.752388
LeftHandThumb1 -26.253704 0.000000 33.147579
RightShoulder 7.450270 30.904251 -19.091732
RightArm -1.178143 -49.876160 62.565955
RightForeArm -29.698204 -0.000000 13.540506
RightHand -4.817694 -0.000000 32.380161
RightHandThumb1 -24.326973 -0.000000 -32.862282
LeftUpLeg -106.973936 -29.505020 -18.326736
LeftLeg 115.593349 -0.000000 -0.000000
LeftFoot 10.997776 9.707959 -16.107337
LeftToeBase 5.696414 -0.000000 -0.000000
RightUpLeg -63.657178 -4.768767 16.427229
RightLeg 6.351689 -0.000000 -0.000000
RightFoot 39.012735 -1.727909 8.398908
RightToeBase 6.633569 -0.000000 -0.000000
1913
root -2.034063 3.704143 -8.018873 -23.751446 8.368556 5.542626
Spine 48.392958 58.521870 25.000783
Head -95.639340 67.623679 -76.763994
LeftShoulder -8.693331 11.043433 17.265070
LeftArm 27.896189 34.644937 -75.625716
LeftForeArm -28.555256 -0.000000 7.523051
LeftHand -53.930321 0.000000 80.708814
LeftHandThumb1 -26.253704 0.000000 33.147579
RightShoulder 7.465262 30.908824 -19.089858
RightArm -1.204537 -49.923020 62.586605
RightForeArm -29.736136 -0.000000 13.537958
RightHand -4.802487 -0.000000 32.380713
RightHandThumb1 -24.326973 -0.000000 -32.862282
LeftUpLeg -106.969563 -29.503058 -18.337986
LeftLeg 115.591458 -0.000000 -0.000000
LeftFoot 10.996144 9.714262 -16.076128
LeftToeBase 5.599571 -0.000000 -0.000000
RightUpLeg -63.658762 -4.766676 16.419157
RightLeg 6.348670 -0.000000 -0.000000
RightFoot 39.031367 -1.757707 8.422345
RightToeBase 6.615275 -0.000000 -0.000000
1914
root -2.033391 3.703826 -8.018668 -23.762628 8.381979 5.542274
Spine 48.408283 58.510509 25.044451
Head -95.578579 67.649520 -76.758904
LeftShoulder -8.664515 11.058916 17.248774
LeftArm 27.853666 34.564356 -75.661747
LeftForeArm -28.482170 -0.000000 7.571464
LeftHand -53.942286 -0.000000 80.819831
LeftHandThumb1 -26.253704 0.000000 33.147579
RightShoulder 7.392231 30.871705 -19.097031
RightArm -1.055060 -50.095185 62.477260
RightForeArm -29.673220 -0.000000 13.487263
RightHand -4.772272 0.000000 32.417947
RightHandThumb1 -24.326973 -0.000000 -32.862282
LeftUpLeg -106.954517 -29.505130 -18.345773
LeftLeg 115.589277 -0.000000 -0.000000
LeftFoot 11.008761 9.687183 -16.100248
LeftToeBase 5.605042 -0.000000 -0.000000
RightUpLeg -63.648517 -4.782645 16.412369
RightLeg 6.343046 -0.000000 -0.000000
RightFoot 39.016948 -1.745722 8.421999
RightToeBase 6.639088 -0.000000 -0.000000
